<?xml version="1.0" encoding="UTF-8" standalone="no"?>
<!-- Created with Inkscape (http://www.inkscape.org/) -->

<svg
   xmlns:dc="http://purl.org/dc/elements/1.1/"
   xmlns:cc="http://creativecommons.org/ns#"
   xmlns:rdf="http://www.w3.org/1999/02/22-rdf-syntax-ns#"
   xmlns:svg="http://www.w3.org/2000/svg"
   xmlns="http://www.w3.org/2000/svg"
   xmlns:xlink="http://www.w3.org/1999/xlink"
   version="1.1"
   width="500"
   height="500"
   id="svg6547">
  <defs
     id="defs6549">
    <linearGradient
       id="linearGradient7112">
      <stop
         id="stop7114"
         style="stop-color:#ffad00;stop-opacity:1"
         offset="0" />
      <stop
         id="stop7122"
         style="stop-color:#ffc600;stop-opacity:1"
         offset="1" />
    </linearGradient>
    <linearGradient
       x1="194.37015"
       y1="985.70947"
       x2="288.42111"
       y2="985.70947"
       id="linearGradient7118"
       xlink:href="#linearGradient7112"
       gradientUnits="userSpaceOnUse"
       gradientTransform="matrix(1.4030487,0,0,1.3507609,-120.7864,-355.34351)" />
    <linearGradient
       x1="194.37015"
       y1="985.70947"
       x2="288.42111"
       y2="985.70947"
       id="linearGradient7132"
       xlink:href="#linearGradient7112"
       gradientUnits="userSpaceOnUse"
       gradientTransform="matrix(1.4030487,0,0,1.3507609,-120.7864,-355.34351)" />
    <linearGradient
       x1="194.37015"
       y1="985.70947"
       x2="288.42111"
       y2="985.70947"
       id="linearGradient3014"
       xlink:href="#linearGradient7112"
       gradientUnits="userSpaceOnUse"
       gradientTransform="matrix(1.422719,1.22688,-1.1811575,1.3696982,928.97389,-1245.2618)" />
  </defs>
  <metadata
     id="metadata6552">
    <rdf:RDF>
      <cc:Work
         rdf:about="">
        <dc:format>image/svg+xml</dc:format>
        <dc:type
           rdf:resource="http://purl.org/dc/dcmitype/StillImage" />
        <dc:title></dc:title>
      </cc:Work>
    </rdf:RDF>
  </metadata>
  <path
     d="m 152.37257,300.41416 c -10.36479,-0.11982 -6.62948,-0.29546 -11.23983,-0.0426 -0.43839,0.024 -0.89326,-0.0372 -1.31516,0.0721 -0.66706,0.17283 -1.21858,0.72591 -1.91173,0.76392 -0.69315,0.038 -1.34143,-0.44924 -2.03374,-0.54752 -1.53568,-0.218 -1.65939,0.42993 -3.22689,0.83608 -1.58275,0.41007 -3.67787,-0.12157 -5.26062,0.28852 -0.66708,0.17284 -1.21858,0.72593 -1.91172,0.76394 -0.69315,0.038 -1.3406,-0.58556 -2.03376,-0.54755 -0.69313,0.038 -1.23464,0.62855 -1.91171,0.76395 -8.05341,0.44173 1.91507,-0.38293 -4.54205,0.90821 -0.85646,0.17124 -1.79946,-0.11444 -2.63031,0.14427 -0.92894,0.28923 -1.57936,1.16649 -2.50831,1.45572 -0.83087,0.25872 -1.77386,-0.027 -2.63032,0.14428 -0.67708,0.13538 -1.27448,0.50929 -1.91173,0.76393 -1.07563,0.27869 -2.12751,0.65207 -3.22688,0.83607 -0.86244,0.14435 -1.79946,-0.11443 -2.63032,0.14429 -0.92892,0.28922 -1.57937,1.16649 -2.508301,1.45572 -0.830866,0.25869 -1.799439,-0.11443 -2.630314,0.14428 -0.928931,0.28923 -1.579368,1.16649 -2.508307,1.45573 -0.830875,0.2587 -1.773856,-0.027 -2.630306,0.14427 -0.677093,0.13538 -1.234645,0.62855 -1.911739,0.76394 -1.712971,0.34255 -3.598899,-0.22888 -5.260663,0.28859 -6.67066,2.07702 1.525828,1.23464 -5.138525,1.5999 -5.688427,0.312 0.04536,-0.28043 -4.542036,0.90819 -0.421889,0.10931 -0.893308,-0.0371 -1.315198,0.0722 -0.667028,0.1728 -1.24463,0.59108 -1.911771,0.76401 -0.421889,0.10931 -0.893186,-0.0373 -1.315075,0.072 -0.667151,0.17292 -1.218645,0.72596 -1.911793,0.76398 -0.309928,0.017 -0.408522,-0.63672 -0.718565,-0.61966 -0.309948,0.0169 -0.625314,0.38265 -0.596603,0.69184 0.158808,1.70724 3.793775,-0.17709 3.945546,-0.21649 0.421889,-0.10931 0.877305,-0.13429 1.315054,-0.072 0.692402,0.0982 1.340636,0.58553 2.033784,0.54751 0.693138,-0.038 1.234663,-0.62857 1.911781,-0.76401 0.856399,-0.17116 1.753506,-0.0961 2.630244,-0.14419 0.876748,-0.0481 1.753619,-0.0963 2.630377,-0.14433 0.876738,-0.0481 1.750806,-0.22025 2.630244,-0.14419 0.69531,0.0601 1.338453,0.48741 2.033763,0.54749 0.879438,0.0761 1.753507,-0.0961 2.630253,-0.1442 1.75362,-0.0963 3.507106,-0.19239 5.260673,-0.28859 0.876785,-0.0481 1.75354,-0.0962 2.630314,-0.14427 0.876776,-0.0481 1.773857,0.027 2.630306,-0.14427 0.677093,-0.13539 1.234647,-0.62855 1.911737,-0.76394 0.85646,-0.17124 1.75354,-0.0962 2.63031,-0.14426 0.87678,-0.0481 1.75355,-0.0962 2.63032,-0.14425 0.87677,-0.0481 1.75085,-0.22033 2.63031,-0.14427 5.42329,1.46008 -1.31516,0.0721 3.94547,-0.21641 0.69315,-0.038 1.34145,0.44925 2.03374,0.54753 0.43785,0.0622 0.8864,-0.18757 1.31516,-0.0721 0.30318,0.0816 0.4154,0.53805 0.71858,0.61967 0.26473,0.0713 1.93835,-0.47767 2.03374,0.54754 0.0287,0.30912 -0.31158,0.57793 -0.59657,0.6918 -0.40304,0.16105 -0.91214,-0.0889 -1.31516,0.0721 -0.285,0.11388 -0.33228,0.53828 -0.59658,0.69181 -0.59122,0.3431 -1.32052,0.42081 -1.91173,0.76393 -0.52881,0.30689 -0.66436,1.0767 -1.19315,1.3836 -3.03112,1.75915 -0.76552,0.19834 -3.22689,0.83608 -0.66708,0.17284 -1.27449,0.50928 -1.91174,0.76392 -1.27447,0.5093 -2.54896,1.01859 -3.82346,1.52787 -0.63724,0.25466 -1.29995,0.45673 -1.91172,0.76396 -0.86521,0.4345 -1.60712,1.09561 -2.50833,1.45576 -1.027473,0.41054 -2.167733,0.50627 -3.226847,0.83603 -0.656843,0.2045 -1.254837,0.55936 -1.911802,0.76399 -1.059115,0.32977 -2.199252,0.42536 -3.226847,0.83603 -0.901209,0.36014 -1.607054,1.09557 -2.508273,1.4557 -1.027594,0.41069 -2.199374,0.42549 -3.226856,0.83604 -0.901208,0.36013 -1.607167,1.0957 -2.508386,1.45582 -1.027472,0.41056 -2.199374,0.4255 -3.226856,0.83604 -0.901209,0.36014 -1.607054,1.09557 -2.508272,1.4557 -1.027596,0.41067 -2.199366,0.42548 -3.22697,0.83617 -0.503034,0.201 -4.513501,2.71039 -5.016535,2.91139 -1.027604,0.41069 -2.167731,0.50629 -3.226856,0.83604 -1.290402,0.40186 -3.473909,1.4424 -4.420064,2.2197 -0.706546,0.58054 -1.083274,1.49494 -1.78981,2.0755 -0.744713,0.61187 -1.743038,0.86868 -2.508262,1.4557 -0.967818,0.74238 -1.382269,2.07277 -2.386291,2.7672 -0.561256,0.3882 -1.350411,0.37568 -1.911669,0.76386 -0.312551,0.21625 -3.537633,3.97459 -3.579479,4.15085 -0.100092,0.42236 -0.216798,1.01941 0.121955,1.31153 0.338733,0.29211 0.876738,-0.0481 1.315205,-0.0722 1.027258,-0.0564 2.982222,-0.35315 3.945414,-0.21634 4.054888,0.57565 0.333461,0.64079 3.348952,0.47534 10.418373,-0.57143 -3.784844,0.48557 4.542036,-0.9082 2.156055,-0.36087 4.419744,1.7e-4 6.575799,-0.3607 1.099377,-0.18399 2.123209,-0.6741 3.226847,-0.83603 1.298693,-0.19053 2.646769,-0.0258 3.945441,-0.21637 1.103772,-0.16204 2.12321,-0.6741 3.226981,-0.83614 1.298673,-0.19055 2.646749,-0.0258 3.945421,-0.21639 1.103658,-0.16191 2.12321,-0.6741 3.226868,-0.83601 2.59747,-0.3812 5.26061,-0.28853 7.890977,-0.43287 6.350889,-0.34831 -1.563508,-0.0866 5.979209,0.33115 0.8803,0.0488 1.7508,-0.22026 2.63025,-0.14421 1.3906,0.12017 2.68286,0.89852 4.06752,1.09501 0.43789,0.0621 0.88642,-0.18758 1.31519,-0.0722 0.30282,0.082 0.47906,0.41312 0.71858,0.61967 0.23952,0.20655 0.47904,0.4131 0.71858,0.61966 0.23953,0.20656 0.91738,0.38915 0.71858,0.61968 -0.4447,0.51569 -1.32063,0.42093 -1.91178,0.76399 -0.26428,0.15351 -0.3116,0.57794 -0.59661,0.69183 -0.80603,0.32208 -1.78648,-0.0744 -2.63025,0.14421 -1.33419,0.34571 -2.46932,1.25714 -3.82345,1.52786 -0.85652,0.17131 -1.773854,-0.027 -2.630376,0.14433 -0.677118,0.13544 -1.254816,0.55937 -1.911659,0.76387 -1.059237,0.3299 -2.199374,0.42549 -3.226969,0.83617 -0.901209,0.36013 -1.607074,1.09555 -2.508273,1.45569 -1.027482,0.41055 -2.199374,0.4255 -3.226856,0.83604 -0.901219,0.36013 -1.607177,1.09569 -2.508272,1.4557 -1.027596,0.41067 -2.175894,0.4837 -3.22697,0.83617 -1.303589,0.43706 -2.519872,1.0908 -3.823451,1.52786 -1.050953,0.35233 -2.227695,0.36524 -3.226857,0.83603 -1.142611,0.53839 -1.962263,1.60915 -3.104866,2.14753 -1.998466,0.94171 -4.455397,0.73051 -6.453846,1.6722 -1.142609,0.53841 -1.962113,1.609 -3.10482,2.1475 -0.999181,0.47079 -2.199438,0.42553 -3.226894,0.83605 -0.901172,0.36011 -1.607019,1.09552 -2.508278,1.45574 -1.027544,0.41061 -2.227626,0.36515 -3.226982,0.83614 -1.142619,0.53841 -2.045115,1.46723 -3.10483,2.1475 -1.625435,1.0434 -3.34445,1.94104 -5.016597,2.91144 -2.508376,1.45584 -5.016588,2.91146 -7.524876,4.36719 -0.836151,0.48532 -1.763528,0.84387 -2.508299,1.45572 -0.706492,0.58051 -1.063725,1.5186 -1.789801,2.0755 -0.540986,0.41505 -1.350402,0.37567 -1.911669,0.76386 -0.502127,0.34725 -0.691132,1.03648 -1.193259,1.38373 -4.030516,2.78775 -0.08163,-1.35828 -3.10483,2.14749 -0.198848,0.23059 -0.397695,0.46118 -0.59663,0.69187 -0.19876,0.23049 -0.625304,0.38265 -0.596455,0.69166 0.02867,0.30921 0.479044,0.41311 0.718575,0.61967 0.239532,0.20656 0.415773,0.53764 0.718585,0.61967 0.428636,0.11556 0.912067,0.089 1.31504,-0.072 0.284992,-0.11386 0.311638,-0.57799 0.59663,-0.69186 0.847226,-0.33856 2.966342,0.0373 3.945448,-0.2164 1.791199,-0.46409 3.981169,-1.94113 5.73526,-2.29189 0.856486,-0.17127 1.799442,0.11447 2.630352,-0.14427 0.928954,-0.2893 1.672127,-0.97043 2.508278,-1.45575 1.075693,-0.27874 2.151201,-0.55729 3.226894,-0.83604 7.978199,-2.06708 -0.956206,0.0195 5.857205,-0.98036 1.530522,-0.22458 3.011468,-0.68358 4.542,-0.90815 0.865777,-0.12701 1.76788,8e-5 2.630419,-0.1444 9.270852,-1.55157 -4.178083,-0.1612 7.768875,-1.74421 1.30188,-0.17246 2.630254,-0.14419 3.945371,-0.21629 1.140193,-0.0626 5.96238,-0.32706 6.575877,-0.36079 1.315128,-0.0721 2.630255,-0.14419 3.945372,-0.21629 0.876758,-0.0481 1.749957,-0.19307 2.630419,-0.1444 1.122254,0.0622 2.22656,0.41334 3.348785,0.47553 5.688427,-0.312 -0.09704,-0.27236 4.66415,0.40318 0.875632,0.12437 1.772805,-0.37514 2.630244,-0.1442 0.302832,0.082 0.415744,0.53764 0.718585,0.61967 0.428776,0.1154 0.976435,-0.36429 1.315178,-0.0722 0.239522,0.20655 -0.332323,0.53832 -0.596603,0.69183 -0.591156,0.34308 -1.320512,0.42081 -1.911659,0.76387 -0.528876,0.30698 -0.623209,1.15586 -1.193206,1.38367 -0.40308,0.1611 -0.94126,-0.14488 -1.315189,0.0722 -0.528762,0.30684 -0.691116,1.03644 -1.19304,1.38347 -1.122698,0.7766 -2.70098,0.75154 -3.823503,1.52793 -0.502127,0.34725 -0.691045,1.03638 -1.193172,1.38363 -5.067585,3.50505 1.868099,-2.94648 -4.420045,2.21969 -0.70659,0.5806 -1.083221,1.49489 -1.789713,2.07539 -0.744731,0.61189 -1.763538,0.84386 -2.508309,1.45572 -0.706493,0.5805 -1.097533,1.47813 -1.789626,2.07529 -0.951443,0.82084 -2.168934,1.30989 -3.105016,2.14769 -1.589218,1.42242 -2.560813,3.44905 -4.175969,4.84255 -3.374196,2.91118 -2.997751,1.12966 -5.491164,4.91477 -0.691171,1.04918 -0.995785,2.32526 -1.667778,3.38691 -0.977942,1.54501 -2.638864,2.58239 -3.579515,4.15089 -0.495748,0.8266 -0.575235,1.86824 -1.071128,2.69507 -0.783791,1.30701 -2.308681,2.08986 -2.982885,3.45902 -0.301465,0.61223 -0.173045,1.39096 -0.474489,2.00321 -0.269653,0.54772 -0.923519,0.83591 -1.193172,1.38363 -0.301474,0.61222 -0.173044,1.39096 -0.474519,2.00318 -0.269653,0.54772 -0.923596,0.83602 -1.193259,1.38373 -0.301465,0.61223 -0.173044,1.39096 -0.474489,2.00321 -0.269653,0.54772 -0.923519,0.83591 -1.193171,1.38363 -1.512788,0.87851 0.05457,2.29041 -0.352554,3.31473 -0.225836,0.56818 -0.967258,0.81534 -1.193171,1.38363 -0.159573,0.40166 0.222037,0.88916 0.12213,1.31133 -0.69838,2.94773 -0.879322,-2.3462 -0.474684,2.00339 0.02337,0.25655 -0.12701,1.98425 0.840541,1.93121 0.62004,-0.0341 0.623197,-1.15588 1.193259,-1.38373 0.402983,-0.16099 0.912046,0.089 1.315204,-0.0722 0.273465,-0.10913 2.664065,-3.08931 2.98271,-3.45882 3.023197,-3.50577 -0.925588,0.64016 3.104928,-2.14759 1.004153,-0.69459 1.418446,-2.02479 2.386256,-2.76716 0.765198,-0.58699 1.672312,-0.97062 2.508376,-1.45583 0.836151,-0.48532 1.643116,-1.02126 2.508299,-1.45573 0.611742,-0.30718 1.299926,-0.45667 1.911756,-0.76396 1.730344,-0.86894 3.34445,-1.94103 5.016587,-2.91145 3.344352,-1.94095 6.688812,-3.88198 10.033272,-5.823 3.09949,-1.79884 1.607116,-1.09562 4.420045,-2.21969 0.637227,-0.25462 1.274453,-0.50924 1.911747,-0.76397 0.637226,-0.25462 1.350402,-0.37567 1.911669,-0.76386 2.55779,-1.76914 -0.192871,-1.30762 2.508299,-1.45572 0.692486,-0.0381 3.43492,-0.0124 3.945556,-0.21649 0.284982,-0.11387 0.795389,-0.92235 0.596629,-0.69186 -0.426551,0.49464 -3.151612,3.90265 -3.579514,4.15089 -0.37401,0.21709 -0.941313,-0.14482 -1.315225,0.0722 -0.460814,0.26742 -3.073127,3.56367 -3.57934,4.15069 -1.789801,2.0755 -3.579514,4.15089 -5.369228,6.22628 -0.795564,0.92256 -1.715867,1.74957 -2.386343,2.76726 -0.691074,1.04909 -0.961839,2.34782 -1.667661,3.38684 -2.243532,3.30256 -3.268106,3.13333 -5.369228,6.22629 -0.872838,1.28485 -1.376923,2.8039 -2.26432,4.07867 -0.870112,1.25008 -2.126904,2.19889 -2.982885,3.45903 -0.705761,1.03907 -0.961927,2.34792 -1.667671,3.38683 -0.855883,1.26005 -2.126991,2.19898 -2.982972,3.45912 -1.411566,2.07793 -1.991376,4.65034 -3.335352,6.77365 -0.489011,0.77247 -1.193084,1.38353 -1.789713,2.0754 -0.357098,0.89842 -0.575411,1.86844 -1.071119,2.69507 -0.470327,0.78416 -1.345801,1.27553 -1.789801,2.0755 -0.331003,0.59613 -0.143556,1.40701 -0.474519,2.00318 -0.444,0.79997 -1.193171,1.38363 -1.789713,2.07539 -0.198848,0.23059 -0.483572,0.40781 -0.596543,0.69177 -0.252534,0.63533 -0.222129,1.36808 -0.474663,2.00341 -0.245539,0.61785 -1.649656,1.48434 -1.789626,2.07529 -0.200086,0.84464 0.444063,1.77832 0.243901,2.62306 -0.141393,0.59716 -1.051518,0.78618 -1.193085,1.38353 -0.100091,0.42237 0.222125,0.88906 0.121956,1.31154 -0.07073,0.29864 -0.483484,0.4077 -0.596542,0.69176 -0.252458,0.63522 -0.222129,1.36808 -0.474509,2.00319 -0.225924,0.56829 -1.051692,0.78638 -1.193259,1.38374 -0.09992,0.42216 0.222124,0.88906 0.12213,1.31133 -0.141567,0.59736 -1.051682,0.78638 -1.193171,1.38363 -0.100179,0.42247 0.08136,0.87429 0.121955,1.31154 0.06607,0.71099 -0.156942,1.66263 0.840531,1.93119 0.42881,0.11536 0.876923,-0.0483 1.315214,-0.0722 0.438447,-0.0242 0.912047,0.089 1.315205,-0.0722 0.284992,-0.11387 0.33228,-0.53828 0.596542,-0.69177 0.591201,-0.3431 1.320555,-0.42085 1.911669,-0.76386 0.264262,-0.15349 0.397695,-0.46117 0.596629,-0.69186 0.397695,-0.46118 0.79539,-0.92235 1.193172,-1.38363 0.397695,-0.46118 0.690957,-1.03628 1.193084,-1.38353 0.561257,-0.3882 1.370709,-0.34896 1.911834,-0.76407 0.725901,-0.55669 1.193084,-1.38353 1.789714,-2.07539 0.596542,-0.69177 1.193084,-1.38353 1.789626,-2.0753 0.596629,-0.69186 1.083123,-1.49479 1.789801,-2.07549 0.74472,-0.6119 1.76345,-0.84376 2.508298,-1.45572 1.177576,-0.96744 1.773009,-2.53094 2.982885,-3.45903 6.874398,-3.98962 -1.510196,1.24073 4.298013,-3.53112 0.744818,-0.61199 1.763527,-0.84386 2.508201,-1.45563 0.706667,-0.5807 1.083308,-1.49499 1.789801,-2.07549 0.74473,-0.61189 1.743101,-0.86873 2.508298,-1.45572 0.483898,-0.37128 0.709274,-1.01235 1.193259,-1.38374 0.765111,-0.58688 1.763353,-0.84366 2.508212,-1.45562 0.70659,-0.5806 1.083221,-1.49489 1.789713,-2.07539 1.158436,-0.95176 3.858239,-1.9598 5.016675,-2.91156 4.551016,-5.27746 -0.792074,0.26872 3.70146,-2.83936 0.502039,-0.34715 0.690957,-1.03628 1.193084,-1.38353 0.646736,-1.6257 2.273639,-0.28286 3.226884,-0.83605 0.528814,-0.30691 0.664279,-1.07661 1.193171,-1.38363 0.373923,-0.21699 0.912133,0.0889 1.315203,-0.0722 0.28491,-0.11377 0.31155,-0.5779 0.59646,-0.69167 0.40307,-0.16109 0.91224,0.0888 1.31521,-0.0722 0.28499,-0.11387 0.3977,-0.46118 0.59663,-0.69187 0.43838,-0.024 0.91207,0.089 1.31513,-0.0721 0.76461,-0.30548 1.02502,-1.7698 1.78971,-2.07539 0.40307,-0.1611 0.91214,0.0889 1.31521,-0.0722 0.28499,-0.11387 0.39769,-0.46117 0.59654,-0.69176 0.19884,-0.23059 0.39769,-0.46118 0.59654,-0.69177 0.99432,-1.15304 1.98865,-2.30608 2.98288,-3.45902 0.19894,-0.23069 0.3977,-0.46118 0.59663,-0.69187 0.19876,-0.23048 0.31155,-0.57789 0.59663,-0.69186 0.4029,-0.16089 0.91207,0.089 1.31504,-0.072 0.285,-0.11387 0.39779,-0.46128 0.59663,-0.69187 0.19885,-0.23059 0.3977,-0.46118 0.59654,-0.69176 0.77467,-0.89832 2.12688,-3.2633 3.70146,-2.83937 0.42883,0.11537 0.28173,0.9097 0.12205,1.31144 -0.24287,0.61114 -2.8571,2.92798 -2.98289,3.45902 -0.1,0.42228 0.22205,0.88917 0.12197,1.31155 -0.0706,0.29853 -0.3977,0.46118 -0.59646,0.69166 -0.39787,0.46138 -0.96743,0.81554 -1.19326,1.38373 -0.15966,0.40177 0.0814,0.87428 0.12203,1.31142 -0.15817,0.66774 -0.17305,1.39096 -0.47449,2.00321 -0.26966,0.54771 -0.92361,0.83601 -1.19326,1.38373 -0.30148,0.61222 -0.17305,1.39095 -0.4745,2.0032 -0.26965,0.54772 -0.92361,0.83601 -1.19326,1.38373 -0.30146,0.61223 -0.17304,1.39096 -0.47451,2.00319 -0.26966,0.54772 -0.92352,0.83591 -1.19317,1.38363 -0.30147,0.61222 -0.17305,1.39095 -0.4745,2.0032 -0.26965,0.54773 -0.79556,0.92256 -1.19326,1.38373 -0.15817,0.66773 -0.22204,1.36798 -0.47452,2.00318 -0.33869,0.85224 -1.38527,1.25405 -1.7898,2.0755 -0.30146,0.61223 -0.22204,1.36798 -0.47449,2.00321 -0.11297,0.28396 -0.39769,0.46117 -0.59654,0.69176 -0.39769,0.46118 -0.79539,0.92235 -1.19326,1.38373 -0.33298,0.38614 -2.8194,3.04765 -2.9828,3.45893 -0.15966,0.40176 0.28172,0.90968 0.12205,1.31143 -0.192,0.48297 -1.881269,2.18156 -2.386345,2.76726 -0.795389,0.92235 -1.590866,1.84481 -2.386256,2.76716 -0.198934,0.23069 -0.836161,0.48531 -0.596629,0.69187 0.338733,0.2921 0.886383,-0.18757 1.315204,-0.0722 0.302823,0.082 0.415773,0.53765 0.718585,0.61967 2.248406,0.60524 0.593318,-0.23714 1.911669,-0.76385 0.403071,-0.1611 0.912222,0.0888 1.315202,-0.0722 0.56397,-0.22532 1.21458,-1.74159 1.78963,-2.07529 0.59129,-0.34321 1.35058,-0.37587 1.91184,-0.76406 0.50213,-0.34725 0.79539,-0.92235 1.19309,-1.38353 1.19317,-1.38363 2.38625,-2.76716 3.57951,-4.15089 0.59654,-0.69176 1.08314,-1.49479 1.78963,-2.07529 0.74482,-0.61199 1.76353,-0.84387 2.50838,-1.45583 0.70658,-0.5806 1.19309,-1.38353 1.78972,-2.07539 1.19308,-1.38353 2.38634,-2.76726 3.57942,-4.15079 1.39211,-1.61432 2.78404,-3.22843 4.17615,-4.84275 0.59654,-0.69177 1.3193,-1.29113 1.78962,-2.0753 0.49593,-0.8268 0.57541,-1.86845 1.07113,-2.69506 0.94064,-1.56852 2.69138,-2.55107 3.57952,-4.15089 0.3309,-0.59604 0.14353,-1.40704 0.4745,-2.0032 0.74012,-1.33318 2.30885,-2.09007 2.98288,-3.45903 0.30147,-0.61223 0.17313,-1.39106 0.4746,-2.00329 0.26956,-0.54762 0.92361,-0.836 1.19308,-1.38353 0.30164,-0.61243 0.17322,-1.39116 0.47468,-2.0034 0.26965,-0.54772 0.92352,-0.8359 1.19308,-1.38353 0.30155,-0.61233 0.17313,-1.39106 0.47459,-2.0033 0.20315,-0.41252 2.26083,-2.23756 2.38634,-2.76726 0.10008,-0.42237 -0.22212,-0.88906 -0.12203,-1.31142 0.14178,-0.59859 1.32739,-1.26771 1.91166,-0.76387 0.33874,0.29212 -0.004,0.88748 0.12204,1.31144 0.19897,0.67036 0.77634,1.23986 0.84062,1.93109 0.0287,0.30922 -0.52581,0.39313 -0.59654,0.69177 -0.20009,0.84464 0.33619,1.75619 0.24391,2.62307 -0.0728,0.68513 -0.31635,1.33545 -0.47451,2.00319 -0.46746,1.97303 -0.79176,4.08913 -1.42377,6.00989 -0.30255,0.91966 -0.76858,1.77542 -1.07104,2.69497 -0.21392,0.65025 -0.26069,1.35304 -0.47451,2.00319 -0.90614,2.75424 -2.30735,5.33104 -3.21349,8.08529 -0.21397,0.65036 -0.26068,1.35304 -0.47458,2.0033 -0.72415,2.20111 -1.7691,4.33935 -2.02023,6.70155 -0.0461,0.4334 0.0814,0.87429 0.12195,1.31153 -0.15816,0.66774 -0.4017,1.31808 -0.47459,2.0033 -0.0462,0.43349 0.16805,0.87815 0.12206,1.31145 -0.073,0.68532 -0.40172,1.31806 -0.4747,2.00338 -0.0461,0.43339 0.28173,0.90969 0.12205,1.31145 -1.32359,3.33027 -1.35723,-0.38061 -1.07114,2.69504 0.40464,4.34961 0.2237,-0.94432 -0.47449,2.00321 -0.10009,0.42237 0.22195,0.88926 0.12195,1.31154 -0.0707,0.29863 -0.52581,0.39313 -0.59663,0.69186 -0.28476,1.20198 0.65086,2.73231 0.36612,3.9343 -0.0708,0.29874 -0.5259,0.39323 -0.59663,0.69187 -0.15427,0.65146 -0.001,1.7046 0.84053,1.93119 1.99621,0.53734 1.45729,-1.03581 2.50838,-1.45583 0.40297,-0.161 0.91214,0.0889 1.31513,-0.0721 0.28499,-0.11387 0.39778,-0.46128 0.59654,-0.69177 0.19893,-0.23069 0.39769,-0.46117 0.59663,-0.69186 1.19308,-1.38353 2.38634,-2.76726 3.57943,-4.15079 2.58519,-2.99785 5.17038,-5.9957 7.75548,-8.99344 0.59663,-0.69187 1.19317,-1.38363 1.7898,-2.0755 0.59645,-0.69166 1.3007,-1.30292 1.78971,-2.07539 0.67195,-1.06169 0.99568,-2.32518 1.66767,-3.38683 0.48902,-0.77247 1.3193,-1.29113 1.78972,-2.0754 0.49583,-0.8267 0.57541,-1.86843 1.07122,-2.69515 0.47032,-0.78417 1.3193,-1.29113 1.78972,-2.0754 0.99151,-1.65336 1.15065,-3.73667 2.14218,-5.39002 0.47041,-0.78426 1.34565,-1.27565 1.7898,-2.07549 0.67101,-1.20872 0.77087,-4.68407 1.42364,-6.00974 0.26964,-0.54772 0.96731,-0.81542 1.1932,-1.38367 0.15969,-0.4018 -0.16807,-0.87814 -0.12198,-1.31151 0.0728,-0.68518 0.40166,-1.31801 0.47449,-2.00321 0.0461,-0.43337 -0.22206,-0.88911 -0.12196,-1.31149 0.0708,-0.29865 0.4835,-0.40772 0.5966,-0.69183 0.64843,-1.63158 0.4921,-1.81417 0.35253,-3.3147 -0.28614,-3.07566 -0.25244,0.63516 1.07109,-2.69504 0.1597,-0.40181 -0.22207,-0.88912 -0.12198,-1.31151 0.0708,-0.29867 0.52586,-0.39318 0.5966,-0.69183 0.1,-0.42225 -0.22206,-0.88912 -0.12197,-1.3115 0.0706,-0.29853 0.52573,-0.39304 0.59649,-0.69171 0.1001,-0.42237 -0.22208,-0.88911 -0.12198,-1.3115 0.14187,-0.59867 1.3275,-1.26784 1.91178,-0.76399 0.33875,0.29211 0.0813,0.87442 0.12197,1.3115 0.0406,0.43721 0.22209,0.88912 0.12199,1.31149 -0.0708,0.29867 -0.52585,0.39318 -0.5966,0.69184 -0.1,0.42225 0.0814,0.8743 0.12211,1.31138 0.0952,1.02449 0.46742,2.98097 0.36591,3.93449 -0.0728,0.68519 -0.44022,1.31366 -0.47449,2.00321 -0.0435,0.87238 0.28749,1.75061 0.24395,2.623 -0.0344,0.68969 -0.40165,1.31801 -0.47449,2.0032 -0.13839,1.30025 0.43122,2.62592 0.36593,3.93451 -0.0343,0.68954 -0.5388,1.312 -0.47451,2.00319 0.0643,0.69122 0.77627,1.23998 0.84057,1.93118 0.0643,0.69122 -0.40168,1.31801 -0.47454,2.00323 -0.0923,0.86686 0.16265,1.74867 0.24401,2.62295 0.12195,1.31153 0.24399,2.62297 0.36602,3.93439 0.0643,0.69037 0.14149,3.4188 0.36595,3.9345 0.12566,0.28748 0.59293,0.33221 0.71858,0.61967 0.17732,0.40699 -0.21661,1.01922 0.12213,1.31134 0.23952,0.20655 0.31155,-0.5779 0.59646,-0.69166 0.40307,-0.1611 0.91222,0.0888 1.3152,-0.0722 0.20978,-0.084 3.55293,-4.08417 3.57952,-4.15089 0.15966,-0.40176 -0.28171,-0.90967 -0.12205,-1.3114 0.22581,-0.56815 0.92346,-0.83585 1.19311,-1.38357 0.30146,-0.61222 0.22208,-1.36802 0.47463,-2.00334 0.11298,-0.28397 0.4616,-0.41801 0.59648,-0.6917 1.05538,-2.14329 1.47318,-4.39218 2.02035,-6.70171 0.15817,-0.66773 0.44022,-1.31366 0.4745,-2.0032 0.0435,-0.87239 -0.28747,-1.7506 -0.24395,-2.623 0.0343,-0.68954 0.31632,-1.33547 0.47452,-2.0032 0.15816,-0.66774 0.26059,-1.35296 0.47461,-2.00333 0.30253,-0.91965 0.92162,-1.73372 1.07111,-2.69505 0.1337,-0.85982 -0.28747,-1.7506 -0.24395,-2.623 0.1014,-2.03548 1.32222,-3.97425 1.42363,-6.00973 0.0435,-0.87239 -0.2875,-1.75062 -0.24396,-2.623 0.0772,-1.54984 1.10038,-3.34472 1.54574,-4.69837 0.42778,-1.3005 0.52121,-2.70593 0.94911,-4.00655 0.30255,-0.91963 0.76859,-1.7754 1.07113,-2.69503 0.4279,-1.30062 0.63278,-2.67108 0.94913,-4.00653 0.15816,-0.66774 0.14357,-1.40708 0.47449,-2.00321 0.44403,-0.79999 1.34564,-1.27563 1.78981,-2.0755 1.17268,-2.11236 0.16059,-1.51014 0.35252,-3.3147 0.51328,-4.82576 0.12183,0.5027 1.66772,-3.38688 0.15967,-0.40177 -0.28168,-0.90971 -0.12201,-1.31148 0.22582,-0.56818 0.96733,-0.81542 1.19315,-1.3836 0.15967,-0.40177 -0.22205,-0.88913 -0.122,-1.31146 0.0707,-0.29864 0.52584,-0.39316 0.59657,-0.6918 0.10005,-0.42232 -0.16268,-1.74864 -0.12201,-1.31147 0.0813,0.87432 0.16268,1.74863 0.24401,2.62293 0.23954,0.20656 0.5933,0.33179 0.71859,0.61967 0.37253,0.85583 0.0739,2.95048 0.36602,3.93441 0.19898,0.67033 0.6416,1.26083 0.84058,1.93114 0.12586,0.42396 -0.004,0.88752 0.12203,1.31147 0.19897,0.67032 0.64159,1.26083 0.84058,1.93115 0.12585,0.42394 -0.004,0.88757 0.12204,1.31143 0.199,0.67029 0.64153,1.26087 0.84055,1.93117 0.12583,0.42398 -0.004,0.88751 0.12199,1.31151 0.19902,0.67028 0.64165,1.26072 0.84056,1.93116 0.25175,0.84784 -0.008,1.77503 0.24407,2.62287 0.19902,0.6703 0.64154,1.26087 0.84056,1.93117 0.12583,0.42399 -0.0552,0.90435 0.12198,1.3115 0.12565,0.28747 0.59293,0.33219 0.71858,0.61967 0.11165,0.2563 0.42905,3.66842 0.36605,3.93436 -0.0708,0.29866 -0.52585,0.39317 -0.5966,0.69184 -0.1,0.42224 0.22207,0.88912 0.1221,1.31136 -0.0708,0.29867 -0.83613,0.48528 -0.5966,0.69184 0.33875,0.29212 0.91211,0.0889 1.31519,-0.0722 0.60071,-0.24001 1.78544,-2.52705 2.38629,-2.7672 0.40296,-0.16097 0.9121,0.0889 1.31505,-0.072 0.29107,-0.11632 1.5211,-1.76389 1.78981,-2.0755 0.56188,-0.65157 2.77973,-2.94785 2.98284,-3.45897 0.15966,-0.40177 -0.22204,-0.88914 -0.12199,-1.31147 0.14147,-0.59725 1.05164,-0.78635 1.19314,-1.3836 0.10006,-0.42233 -0.22205,-0.88914 -0.12202,-1.31147 0.0707,-0.29864 0.52585,-0.39317 0.59658,-0.6918 0.10989,-0.46383 -0.41626,-4.47455 -0.48802,-5.24588 -0.12202,-1.31146 -0.24401,-2.62295 -0.36603,-3.9344 -0.0407,-0.43716 -0.1681,-0.8781 -0.122,-1.31148 0.0729,-0.68525 0.40168,-1.31804 0.47456,-2.00327 0.0922,-0.86678 -0.33621,-1.75618 -0.24401,-2.62295 0.0729,-0.68523 0.40168,-1.31802 0.47458,-2.00326 0.0922,-0.86677 -0.44412,-1.77829 -0.24403,-2.62296 0.0708,-0.29863 0.52584,-0.39316 0.59658,-0.6918 0.2335,-0.98563 -0.72153,-4.26023 -0.48802,-5.24586 0.0707,-0.29864 0.48357,-0.40781 0.59657,-0.6918 2.58625,-6.50719 -0.73341,1.26934 0.35257,-3.31475 0.0707,-0.29863 0.52584,-0.39316 0.59656,-0.69179 0.28474,-1.20197 -0.65077,-2.73246 -0.36602,-3.93442 0.0707,-0.29865 0.52584,-0.39316 0.59658,-0.69181 0.2001,-0.84466 -0.44413,-1.77828 -0.24403,-2.62294 0.0707,-0.29865 0.52584,-0.39316 0.59658,-0.6918 0.98752,-4.16856 -0.58808,0.78241 -0.84059,-1.93113 -0.25244,-2.71347 2.2238,2.01511 0.47459,-2.00328 -0.25063,-0.57574 -1.18656,-0.66358 -1.43717,-1.23935 -0.17721,-0.40712 0.0552,-0.90432 -0.12201,-1.31145 -0.46217,-1.06175 -2.02498,-0.58455 -1.55917,-2.55081 0.0707,-0.29864 0.39772,-0.46121 0.59658,-0.69181 0.32439,-0.37617 1.7699,-2.28916 1.91172,-0.76393 0.0407,0.43715 -0.97642,0.36425 -1.31515,0.0721 -0.23954,-0.20656 0.62533,-0.38268 0.59657,-0.69181 -0.0288,-0.30912 -0.68983,-0.31054 -0.71858,-0.61967 -0.0575,-0.61821 0.96734,-0.81543 1.19314,-1.3836 0.25247,-0.63523 0.2221,-1.36804 0.47457,-2.00326 0.11302,-0.28401 0.52584,-0.39316 0.59659,-0.69181 0.10004,-0.42233 -0.22205,-0.88914 -0.12201,-1.31148 0.3273,-1.38161 1.40384,0.13166 0.47456,-2.00327 -0.25062,-0.57575 -1.18655,-0.66358 -1.43716,-1.23933 -0.17722,-0.40713 0.0552,-0.90435 -0.12202,-1.31147 -0.12529,-0.28788 -0.59328,-0.33178 -0.71857,-0.61966 -0.17721,-0.40712 0.0552,-0.90436 -0.12201,-1.31148 -0.12529,-0.28787 -0.59328,-0.33178 -0.71859,-0.61967 -0.17719,-0.40711 0.0552,-0.90434 -0.12199,-1.31146 -0.036,-0.0823 -2.78772,-2.45526 -2.87434,-2.47869 -0.82683,-0.22258 -1.5409,0.5847 -2.03374,-0.54753 -0.17721,-0.40712 0.0552,-0.90434 -0.12201,-1.31147 -0.12529,-0.28788 -0.47904,-0.4131 -0.71857,-0.61966 -0.23952,-0.20655 -0.47905,-0.41311 -0.71859,-0.61967 -1.43716,-1.23934 -2.87432,-2.47867 -4.31149,-3.71801 -0.23951,-0.20654 -0.47904,-0.4131 -0.71857,-0.61966 -0.23953,-0.20656 -0.4086,-0.63667 -0.71859,-0.61968 -0.30999,0.017 -0.28658,0.6748 -0.59657,0.69181 -0.30999,0.017 -0.47906,-0.41311 -0.71858,-0.61966 -0.23952,-0.20655 -0.47905,-0.41311 -0.71858,-0.61967 -1.6852,-1.45323 0.19811,0.45517 -0.84059,-1.93114 -0.25062,-0.57576 -1.18656,-0.66359 -1.43717,-1.23934 -0.17719,-0.40712 0.0552,-0.90434 -0.122,-1.31146 -0.18702,-0.42967 -2.63661,-2.08978 -2.87433,-2.47868 -0.23242,-0.38025 0.0552,-0.90434 -0.122,-1.31146 -0.12531,-0.28791 -0.47906,-0.41312 -0.71859,-0.61967 -0.23953,-0.20656 -0.47906,-0.41312 -0.71858,-0.61967 -1.91622,-1.65246 -3.83244,-3.3049 -5.74866,-4.95735 -0.32361,-0.27906 -1.84621,-1.77575 -2.15573,-1.85899 -0.42876,-0.11544 -0.88641,0.18756 -1.31517,0.0721 -0.60633,-0.16324 -0.8308,-1.07609 -1.43716,-1.23933 -0.42875,-0.11543 -0.88639,0.18756 -1.31515,0.0721 -0.30317,-0.0816 -0.4154,-0.53804 -0.71859,-0.61967 -0.42875,-0.11542 -0.90487,0.24614 -1.31515,0.0721 -3.27119,-2.82091 0.24017,-0.36155 -2.75232,-1.1672 -0.81349,-0.21901 -1.34225,-1.63999 -2.15575,-1.85901 -0.42875,-0.11542 -0.8864,0.18755 -1.31515,0.0721 -1.19236,-0.321 -0.49884,-1.146 -0.84059,-1.93113 -0.25062,-0.57577 -1.18655,-0.66359 -1.43716,-1.23933 -0.17721,-0.40712 0.21673,-1.01937 -0.12201,-1.31148 -0.33874,-0.29212 -0.88641,0.18756 -1.31515,0.0721 -0.30319,-0.0816 -0.47906,-0.41312 -0.71859,-0.61967 -0.37577,-0.32405 -2.60695,-2.4067 -2.87434,-2.47868 -0.42874,-0.11542 -0.88638,0.18757 -1.31513,0.0721 -0.55165,-0.14852 -2.51449,-2.49842 -2.87434,-2.47869 -0.30998,0.017 -0.35704,0.89837 -0.59658,0.69181 -1.22134,-1.05323 -1.54319,-4.37081 -2.99632,-3.79014 -1.66172,0.66405 -0.31154,3.60767 -0.82714,5.31802 -0.17685,0.58665 -0.79543,0.9224 -1.19315,1.38361"
     id="path7110"
     style="fill:url(#linearGradient3014);fill-opacity:1;stroke:#fff500;stroke-width:1.84332144px;stroke-linecap:butt;stroke-linejoin:miter;stroke-opacity:1" />
  <path
     d="m 195.09574,318.3687 92.18832,79.49848 C 527.04306,295.46795 439.2504,139.54308 458.32404,13.122955 z"
     id="path6557"
     style="fill:#cecece;fill-opacity:1;stroke:#000000;stroke-width:2.54407001;stroke-miterlimit:4;stroke-opacity:1;stroke-dasharray:none" />
  <path
     d="M 195.09402,318.38694 102.90569,238.88846 C 168.94229,-13.320081 336.08021,50.594127 458.32231,13.141197 z"
     id="path6557-1"
     style="fill:#cecece;fill-opacity:1;stroke:#000000;stroke-width:2.54407001;stroke-miterlimit:4;stroke-opacity:1;stroke-dasharray:none" />
  <path
     d="M 103.79074,237.84589 50.466234,236.51261 297.83821,449.83353 287.21356,396.91336 z"
     id="path7086"
     style="fill:#cecece;fill-opacity:1;stroke:#000000;stroke-width:2.54407001;stroke-linecap:butt;stroke-linejoin:miter;stroke-miterlimit:4;stroke-opacity:1;stroke-dasharray:none" />
  <path
     d="m 127.93264,259.55765 -82.169123,4.15529 2.050676,99.10763 29.331905,-70.25885 78.071872,-7.68856 z"
     id="path7088"
     style="fill:#cecece;fill-opacity:1;stroke:#000000;stroke-width:2.54407001;stroke-linecap:butt;stroke-linejoin:miter;stroke-miterlimit:4;stroke-opacity:1;stroke-dasharray:none" />
  <path
     d="m 253.51692,369.19464 7.97055,81.88713 -98.33221,12.54271 65.18299,-39.34285 -3.87329,-78.35387 z"
     id="path7088-1"
     style="fill:#cecece;fill-opacity:1;stroke:#000000;stroke-width:2.54407001;stroke-linecap:butt;stroke-linejoin:miter;stroke-miterlimit:4;stroke-opacity:1;stroke-dasharray:none" />
  <text
     x="25.424658"
     y="227.9991"
     id="text7134"
     xml:space="preserve"
     style="font-size:53.28237915px;font-style:normal;font-weight:normal;line-height:125%;letter-spacing:0px;word-spacing:0px;fill:#00070e;fill-opacity:1;stroke:none;font-family:Sans"><tspan
       x="25.424658"
       y="227.9991"
       id="tspan7136"
       style="font-size:95.90827942px;font-style:oblique;font-weight:bold;fill:#00070e;fill-opacity:1;-inkscape-font-specification:Sans Bold Oblique">WebStart</tspan></text>
  <text
     x="320.97458"
     y="430.08475"
     id="text3784"
     xml:space="preserve"
     style="font-size:40px;font-style:normal;font-weight:bold;line-height:125%;letter-spacing:0px;word-spacing:0px;fill:#000000;fill-opacity:1;stroke:none;font-family:Sans;-inkscape-font-specification:Sans Bold"><tspan
       x="320.97458"
       y="430.08475"
       id="tspan3786">MVC</tspan></text>
</svg>
